<svg width="200" height="75" viewBox="0 0 200 75" fill="none" xmlns="http://www.w3.org/2000/svg">
<path d="M196 0H4C1.79086 0 0 1.79086 0 4V71C0 73.2091 1.79086 75 4 75H196C198.209 75 200 73.2091 200 71V4C200 1.79086 198.209 0 196 0Z" fill="#F6F7F9"/>
<path d="M34.6992 25.6602V32H31.7344V14.9375H38.2617C40.168 14.9375 41.6797 15.4336 42.7969 16.4258C43.9219 17.418 44.4844 18.7305 44.4844 20.3633C44.4844 22.0352 43.9336 23.3359 42.832 24.2656C41.7383 25.1953 40.2031 25.6602 38.2266 25.6602H34.6992ZM34.6992 23.2812H38.2617C39.3164 23.2812 40.1211 23.0352 40.6758 22.543C41.2305 22.043 41.5078 21.3242 41.5078 20.3867C41.5078 19.4648 41.2266 18.7305 40.6641 18.1836C40.1016 17.6289 39.3281 17.3438 38.3438 17.3281H34.6992V23.2812ZM49.8398 32H46.9922V19.3203H49.8398V32ZM46.8164 16.0273C46.8164 15.5898 46.9531 15.2266 47.2266 14.9375C47.5078 14.6484 47.9062 14.5039 48.4219 14.5039C48.9375 14.5039 49.3359 14.6484 49.6172 14.9375C49.8984 15.2266 50.0391 15.5898 50.0391 16.0273C50.0391 16.457 49.8984 16.8164 49.6172 17.1055C49.3359 17.3867 48.9375 17.5273 48.4219 17.5273C47.9062 17.5273 47.5078 17.3867 47.2266 17.1055C46.9531 16.8164 46.8164 16.457 46.8164 16.0273ZM60.0586 28.5547C60.0586 28.0469 59.8477 27.6602 59.4258 27.3945C59.0117 27.1289 58.3203 26.8945 57.3516 26.6914C56.3828 26.4883 55.5742 26.2305 54.9258 25.918C53.5039 25.2305 52.793 24.2344 52.793 22.9297C52.793 21.8359 53.2539 20.9219 54.1758 20.1875C55.0977 19.4531 56.2695 19.0859 57.6914 19.0859C59.207 19.0859 60.4297 19.4609 61.3594 20.2109C62.2969 20.9609 62.7656 21.9336 62.7656 23.1289H59.918C59.918 22.582 59.7148 22.1289 59.3086 21.7695C58.9023 21.4023 58.3633 21.2188 57.6914 21.2188C57.0664 21.2188 56.5547 21.3633 56.1562 21.6523C55.7656 21.9414 55.5703 22.3281 55.5703 22.8125C55.5703 23.25 55.7539 23.5898 56.1211 23.832C56.4883 24.0742 57.2305 24.3203 58.3477 24.5703C59.4648 24.8125 60.3398 25.1055 60.9727 25.4492C61.6133 25.7852 62.0859 26.1914 62.3906 26.668C62.7031 27.1445 62.8594 27.7227 62.8594 28.4023C62.8594 29.543 62.3867 30.4688 61.4414 31.1797C60.4961 31.8828 59.2578 32.2344 57.7266 32.2344C56.6875 32.2344 55.7617 32.0469 54.9492 31.6719C54.1367 31.2969 53.5039 30.7812 53.0508 30.125C52.5977 29.4688 52.3711 28.7617 52.3711 28.0039H55.1367C55.1758 28.6758 55.4297 29.1953 55.8984 29.5625C56.3672 29.9219 56.9883 30.1016 57.7617 30.1016C58.5117 30.1016 59.082 29.9609 59.4727 29.6797C59.8633 29.3906 60.0586 29.0156 60.0586 28.5547ZM67.125 29C67.6562 29 68.0664 29.1523 68.3555 29.457C68.6445 29.7539 68.7891 30.1289 68.7891 30.582C68.7891 31.0273 68.6445 31.3984 68.3555 31.6953C68.0664 31.9844 67.6562 32.1289 67.125 32.1289C66.6172 32.1289 66.2148 31.9844 65.918 31.6953C65.6211 31.4062 65.4727 31.0352 65.4727 30.582C65.4727 30.1289 65.6172 29.7539 65.9062 29.457C66.1953 29.1523 66.6016 29 67.125 29ZM87.8555 28.0273H81.2461L79.8633 32H76.7812L83.2266 14.9375H85.8867L92.3438 32H89.25L87.8555 28.0273ZM82.0781 25.6367H87.0234L84.5508 18.5586L82.0781 25.6367ZM101.121 28.5547C101.121 28.0469 100.91 27.6602 100.488 27.3945C100.074 27.1289 99.3828 26.8945 98.4141 26.6914C97.4453 26.4883 96.6367 26.2305 95.9883 25.918C94.5664 25.2305 93.8555 24.2344 93.8555 22.9297C93.8555 21.8359 94.3164 20.9219 95.2383 20.1875C96.1602 19.4531 97.332 19.0859 98.7539 19.0859C100.27 19.0859 101.492 19.4609 102.422 20.2109C103.359 20.9609 103.828 21.9336 103.828 23.1289H100.98C100.98 22.582 100.777 22.1289 100.371 21.7695C99.9648 21.4023 99.4258 21.2188 98.7539 21.2188C98.1289 21.2188 97.6172 21.3633 97.2188 21.6523C96.8281 21.9414 96.6328 22.3281 96.6328 22.8125C96.6328 23.25 96.8164 23.5898 97.1836 23.832C97.5508 24.0742 98.293 24.3203 99.4102 24.5703C100.527 24.8125 101.402 25.1055 102.035 25.4492C102.676 25.7852 103.148 26.1914 103.453 26.668C103.766 27.1445 103.922 27.7227 103.922 28.4023C103.922 29.543 103.449 30.4688 102.504 31.1797C101.559 31.8828 100.32 32.2344 98.7891 32.2344C97.75 32.2344 96.8242 32.0469 96.0117 31.6719C95.1992 31.2969 94.5664 30.7812 94.1133 30.125C93.6602 29.4688 93.4336 28.7617 93.4336 28.0039H96.1992C96.2383 28.6758 96.4922 29.1953 96.9609 29.5625C97.4297 29.9219 98.0508 30.1016 98.8242 30.1016C99.5742 30.1016 100.145 29.9609 100.535 29.6797C100.926 29.3906 101.121 29.0156 101.121 28.5547ZM113.52 28.5547C113.52 28.0469 113.309 27.6602 112.887 27.3945C112.473 27.1289 111.781 26.8945 110.812 26.6914C109.844 26.4883 109.035 26.2305 108.387 25.918C106.965 25.2305 106.254 24.2344 106.254 22.9297C106.254 21.8359 106.715 20.9219 107.637 20.1875C108.559 19.4531 109.73 19.0859 111.152 19.0859C112.668 19.0859 113.891 19.4609 114.82 20.2109C115.758 20.9609 116.227 21.9336 116.227 23.1289H113.379C113.379 22.582 113.176 22.1289 112.77 21.7695C112.363 21.4023 111.824 21.2188 111.152 21.2188C110.527 21.2188 110.016 21.3633 109.617 21.6523C109.227 21.9414 109.031 22.3281 109.031 22.8125C109.031 23.25 109.215 23.5898 109.582 23.832C109.949 24.0742 110.691 24.3203 111.809 24.5703C112.926 24.8125 113.801 25.1055 114.434 25.4492C115.074 25.7852 115.547 26.1914 115.852 26.668C116.164 27.1445 116.32 27.7227 116.32 28.4023C116.32 29.543 115.848 30.4688 114.902 31.1797C113.957 31.8828 112.719 32.2344 111.188 32.2344C110.148 32.2344 109.223 32.0469 108.41 31.6719C107.598 31.2969 106.965 30.7812 106.512 30.125C106.059 29.4688 105.832 28.7617 105.832 28.0039H108.598C108.637 28.6758 108.891 29.1953 109.359 29.5625C109.828 29.9219 110.449 30.1016 111.223 30.1016C111.973 30.1016 112.543 29.9609 112.934 29.6797C113.324 29.3906 113.52 29.0156 113.52 28.5547ZM126.387 32C126.262 31.7578 126.152 31.3633 126.059 30.8164C125.152 31.7617 124.043 32.2344 122.73 32.2344C121.457 32.2344 120.418 31.8711 119.613 31.1445C118.809 30.418 118.406 29.5195 118.406 28.4492C118.406 27.0977 118.906 26.0625 119.906 25.3438C120.914 24.6172 122.352 24.2539 124.219 24.2539H125.965V23.4219C125.965 22.7656 125.781 22.2422 125.414 21.8516C125.047 21.4531 124.488 21.2539 123.738 21.2539C123.09 21.2539 122.559 21.418 122.145 21.7461C121.73 22.0664 121.523 22.4766 121.523 22.9766H118.676C118.676 22.2812 118.906 21.6328 119.367 21.0312C119.828 20.4219 120.453 19.9453 121.242 19.6016C122.039 19.2578 122.926 19.0859 123.902 19.0859C125.387 19.0859 126.57 19.4609 127.453 20.2109C128.336 20.9531 128.789 22 128.812 23.3516V29.0703C128.812 30.2109 128.973 31.1211 129.293 31.8008V32H126.387ZM123.258 29.9492C123.82 29.9492 124.348 29.8125 124.84 29.5391C125.34 29.2656 125.715 28.8984 125.965 28.4375V26.0469H124.43C123.375 26.0469 122.582 26.2305 122.051 26.5977C121.52 26.9648 121.254 27.4844 121.254 28.1562C121.254 28.7031 121.434 29.1406 121.793 29.4688C122.16 29.7891 122.648 29.9492 123.258 29.9492ZM131.262 25.5664C131.262 23.6133 131.715 22.0469 132.621 20.8672C133.527 19.6797 134.742 19.0859 136.266 19.0859C137.609 19.0859 138.695 19.5547 139.523 20.4922V14H142.371V32H139.793L139.652 30.6875C138.801 31.7188 137.664 32.2344 136.242 32.2344C134.758 32.2344 133.555 31.6367 132.633 30.4414C131.719 29.2461 131.262 27.6211 131.262 25.5664ZM134.109 25.8125C134.109 27.1016 134.355 28.1094 134.848 28.8359C135.348 29.5547 136.055 29.9141 136.969 29.9141C138.133 29.9141 138.984 29.3945 139.523 28.3555V22.9414C139 21.9258 138.156 21.418 136.992 21.418C136.07 21.418 135.359 21.7852 134.859 22.5195C134.359 23.2461 134.109 24.3438 134.109 25.8125ZM144.809 25.543C144.809 24.3008 145.055 23.1836 145.547 22.1914C146.039 21.1914 146.73 20.4258 147.621 19.8945C148.512 19.3555 149.535 19.0859 150.691 19.0859C152.402 19.0859 153.789 19.6367 154.852 20.7383C155.922 21.8398 156.5 23.3008 156.586 25.1211L156.598 25.7891C156.598 27.0391 156.355 28.1562 155.871 29.1406C155.395 30.125 154.707 30.8867 153.809 31.4258C152.918 31.9648 151.887 32.2344 150.715 32.2344C148.926 32.2344 147.492 31.6406 146.414 30.4531C145.344 29.2578 144.809 27.668 144.809 25.6836V25.543ZM147.656 25.7891C147.656 27.0938 147.926 28.1172 148.465 28.8594C149.004 29.5938 149.754 29.9609 150.715 29.9609C151.676 29.9609 152.422 29.5859 152.953 28.8359C153.492 28.0859 153.762 26.9883 153.762 25.543C153.762 24.2617 153.484 23.2461 152.93 22.4961C152.383 21.7461 151.637 21.3711 150.691 21.3711C149.762 21.3711 149.023 21.7422 148.477 22.4844C147.93 23.2188 147.656 24.3203 147.656 25.7891ZM166.113 28.5547C166.113 28.0469 165.902 27.6602 165.48 27.3945C165.066 27.1289 164.375 26.8945 163.406 26.6914C162.438 26.4883 161.629 26.2305 160.98 25.918C159.559 25.2305 158.848 24.2344 158.848 22.9297C158.848 21.8359 159.309 20.9219 160.23 20.1875C161.152 19.4531 162.324 19.0859 163.746 19.0859C165.262 19.0859 166.484 19.4609 167.414 20.2109C168.352 20.9609 168.82 21.9336 168.82 23.1289H165.973C165.973 22.582 165.77 22.1289 165.363 21.7695C164.957 21.4023 164.418 21.2188 163.746 21.2188C163.121 21.2188 162.609 21.3633 162.211 21.6523C161.82 21.9414 161.625 22.3281 161.625 22.8125C161.625 23.25 161.809 23.5898 162.176 23.832C162.543 24.0742 163.285 24.3203 164.402 24.5703C165.52 24.8125 166.395 25.1055 167.027 25.4492C167.668 25.7852 168.141 26.1914 168.445 26.668C168.758 27.1445 168.914 27.7227 168.914 28.4023C168.914 29.543 168.441 30.4688 167.496 31.1797C166.551 31.8828 165.312 32.2344 163.781 32.2344C162.742 32.2344 161.816 32.0469 161.004 31.6719C160.191 31.2969 159.559 30.7812 159.105 30.125C158.652 29.4688 158.426 28.7617 158.426 28.0039H161.191C161.23 28.6758 161.484 29.1953 161.953 29.5625C162.422 29.9219 163.043 30.1016 163.816 30.1016C164.566 30.1016 165.137 29.9609 165.527 29.6797C165.918 29.3906 166.113 29.0156 166.113 28.5547ZM54.9727 60.2344C53.168 60.2344 51.7031 59.668 50.5781 58.5352C49.4609 57.3945 48.9023 55.8789 48.9023 53.9883V53.6367C48.9023 52.3711 49.1445 51.2422 49.6289 50.25C50.1211 49.25 50.8086 48.4727 51.6914 47.918C52.5742 47.3633 53.5586 47.0859 54.6445 47.0859C56.3711 47.0859 57.7031 47.6367 58.6406 48.7383C59.5859 49.8398 60.0586 51.3984 60.0586 53.4141V54.5625H51.7734C51.8594 55.6094 52.207 56.4375 52.8164 57.0469C53.4336 57.6562 54.207 57.9609 55.1367 57.9609C56.4414 57.9609 57.5039 57.4336 58.3242 56.3789L59.8594 57.8438C59.3516 58.6016 58.6719 59.1914 57.8203 59.6133C56.9766 60.0273 56.0273 60.2344 54.9727 60.2344ZM54.6328 49.3711C53.8516 49.3711 53.2188 49.6445 52.7344 50.1914C52.2578 50.7383 51.9531 51.5 51.8203 52.4766H57.2461V52.2656C57.1836 51.3125 56.9297 50.5938 56.4844 50.1094C56.0391 49.6172 55.4219 49.3711 54.6328 49.3711ZM64.957 47.3203L65.0391 48.6445C65.9297 47.6055 67.1484 47.0859 68.6953 47.0859C70.3906 47.0859 71.5508 47.7344 72.1758 49.0312C73.0977 47.7344 74.3945 47.0859 76.0664 47.0859C77.4648 47.0859 78.5039 47.4727 79.1836 48.2461C79.8711 49.0195 80.2227 50.1602 80.2383 51.668V60H77.3906V51.75C77.3906 50.9453 77.2148 50.3555 76.8633 49.9805C76.5117 49.6055 75.9297 49.418 75.1172 49.418C74.4688 49.418 73.9375 49.5938 73.5234 49.9453C73.1172 50.2891 72.832 50.7422 72.668 51.3047L72.6797 60H69.832V51.6562C69.793 50.1641 69.0312 49.418 67.5469 49.418C66.4062 49.418 65.5977 49.8828 65.1211 50.8125V60H62.2734V47.3203H64.957ZM102.492 57.7852C101.875 58.5898 101.02 59.1992 99.9258 59.6133C98.832 60.0273 97.5898 60.2344 96.1992 60.2344C94.7695 60.2344 93.5039 59.9102 92.4023 59.2617C91.3008 58.6133 90.4492 57.6875 89.8477 56.4844C89.2539 55.2734 88.9453 53.8633 88.9219 52.2539V50.918C88.9219 48.3398 89.5391 46.3281 90.7734 44.8828C92.0078 43.4297 93.7305 42.7031 95.9414 42.7031C97.8398 42.7031 99.3477 43.1719 100.465 44.1094C101.582 45.0469 102.254 46.3984 102.48 48.1641H99.5742C99.2461 46.1094 98.0547 45.082 96 45.082C94.6719 45.082 93.6602 45.5625 92.9648 46.5234C92.2773 47.4766 91.9219 48.8789 91.8984 50.7305V52.043C91.8984 53.8867 92.2852 55.3203 93.0586 56.3438C93.8398 57.3594 94.9219 57.8672 96.3047 57.8672C97.8203 57.8672 98.8984 57.5234 99.5391 56.8359V53.4961H96.0234V51.2461H102.492V57.7852ZM111.059 60.2344C109.254 60.2344 107.789 59.668 106.664 58.5352C105.547 57.3945 104.988 55.8789 104.988 53.9883V53.6367C104.988 52.3711 105.23 51.2422 105.715 50.25C106.207 49.25 106.895 48.4727 107.777 47.918C108.66 47.3633 109.645 47.0859 110.73 47.0859C112.457 47.0859 113.789 47.6367 114.727 48.7383C115.672 49.8398 116.145 51.3984 116.145 53.4141V54.5625H107.859C107.945 55.6094 108.293 56.4375 108.902 57.0469C109.52 57.6562 110.293 57.9609 111.223 57.9609C112.527 57.9609 113.59 57.4336 114.41 56.3789L115.945 57.8438C115.438 58.6016 114.758 59.1914 113.906 59.6133C113.062 60.0273 112.113 60.2344 111.059 60.2344ZM110.719 49.3711C109.938 49.3711 109.305 49.6445 108.82 50.1914C108.344 50.7383 108.039 51.5 107.906 52.4766H113.332V52.2656C113.27 51.3125 113.016 50.5938 112.57 50.1094C112.125 49.6172 111.508 49.3711 110.719 49.3711ZM125.004 49.9219C124.629 49.8594 124.242 49.8281 123.844 49.8281C122.539 49.8281 121.66 50.3281 121.207 51.3281V60H118.359V47.3203H121.078L121.148 48.7383C121.836 47.6367 122.789 47.0859 124.008 47.0859C124.414 47.0859 124.75 47.1406 125.016 47.25L125.004 49.9219ZM134.027 60C133.902 59.7578 133.793 59.3633 133.699 58.8164C132.793 59.7617 131.684 60.2344 130.371 60.2344C129.098 60.2344 128.059 59.8711 127.254 59.1445C126.449 58.418 126.047 57.5195 126.047 56.4492C126.047 55.0977 126.547 54.0625 127.547 53.3438C128.555 52.6172 129.992 52.2539 131.859 52.2539H133.605V51.4219C133.605 50.7656 133.422 50.2422 133.055 49.8516C132.688 49.4531 132.129 49.2539 131.379 49.2539C130.73 49.2539 130.199 49.418 129.785 49.7461C129.371 50.0664 129.164 50.4766 129.164 50.9766H126.316C126.316 50.2812 126.547 49.6328 127.008 49.0312C127.469 48.4219 128.094 47.9453 128.883 47.6016C129.68 47.2578 130.566 47.0859 131.543 47.0859C133.027 47.0859 134.211 47.4609 135.094 48.2109C135.977 48.9531 136.43 50 136.453 51.3516V57.0703C136.453 58.2109 136.613 59.1211 136.934 59.8008V60H134.027ZM130.898 57.9492C131.461 57.9492 131.988 57.8125 132.48 57.5391C132.98 57.2656 133.355 56.8984 133.605 56.4375V54.0469H132.07C131.016 54.0469 130.223 54.2305 129.691 54.5977C129.16 54.9648 128.895 55.4844 128.895 56.1562C128.895 56.7031 129.074 57.1406 129.434 57.4688C129.801 57.7891 130.289 57.9492 130.898 57.9492ZM142.465 60H139.617V42H142.465V60Z" fill="#0150AD"/>
<rect x="1" y="1" width="198" height="73" rx="5" stroke="#0150AD" stroke-width="2"/>
</svg>
